<mxfile host="www.draw.io" modified="2020-02-17T04:36:42.902Z" agent="Mozilla/5.0 (Macintosh; Intel Mac OS X 10_13_6) AppleWebKit/537.36 (KHTML, like Gecko) Chrome/80.0.3987.106 Safari/537.36" etag="kC8-K9TT7ALBrCGTy4w0" version="12.7.0" type="github">
  <diagram id="M_dirfUd4a91RtG49mVg" name="Page-1">
    <mxGraphModel dx="1109" dy="508" grid="1" gridSize="10" guides="1" tooltips="1" connect="1" arrows="1" fold="1" page="1" pageScale="1" pageWidth="827" pageHeight="1169" math="0" shadow="0">
      <root>
        <mxCell id="0"/>
        <mxCell id="1" parent="0"/>
        <mxCell id="9G03GbZR6taJ4nQDHWax-11" style="edgeStyle=none;rounded=0;orthogonalLoop=1;jettySize=auto;html=1;exitX=1;exitY=0.5;exitDx=0;exitDy=0;entryX=0;entryY=0.5;entryDx=0;entryDy=0;" parent="1" source="9G03GbZR6taJ4nQDHWax-1" target="9G03GbZR6taJ4nQDHWax-4" edge="1">
          <mxGeometry relative="1" as="geometry"/>
        </mxCell>
        <mxCell id="9G03GbZR6taJ4nQDHWax-1" value="input" style="rounded=1;whiteSpace=wrap;html=1;shadow=1;strokeColor=#999999;" parent="1" vertex="1">
          <mxGeometry x="60" y="130" width="80" height="40" as="geometry"/>
        </mxCell>
        <mxCell id="9G03GbZR6taJ4nQDHWax-7" style="rounded=0;orthogonalLoop=1;jettySize=auto;html=1;exitX=1;exitY=0.5;exitDx=0;exitDy=0;entryX=0;entryY=0.5;entryDx=0;entryDy=0;" parent="1" source="9G03GbZR6taJ4nQDHWax-4" target="9G03GbZR6taJ4nQDHWax-5" edge="1">
          <mxGeometry relative="1" as="geometry"/>
        </mxCell>
        <mxCell id="9G03GbZR6taJ4nQDHWax-9" style="edgeStyle=none;rounded=0;orthogonalLoop=1;jettySize=auto;html=1;exitX=1;exitY=0.5;exitDx=0;exitDy=0;entryX=0;entryY=0.5;entryDx=0;entryDy=0;" parent="1" source="9G03GbZR6taJ4nQDHWax-4" target="9G03GbZR6taJ4nQDHWax-8" edge="1">
          <mxGeometry relative="1" as="geometry"/>
        </mxCell>
        <mxCell id="9G03GbZR6taJ4nQDHWax-4" value="select" style="rounded=1;whiteSpace=wrap;html=1;shadow=1;strokeColor=#B3B3B3;fillColor=#33FF33;" parent="1" vertex="1">
          <mxGeometry x="180" y="130" width="80" height="40" as="geometry"/>
        </mxCell>
        <mxCell id="Zzy0RxifWcgGenKRZsW1-2" style="edgeStyle=orthogonalEdgeStyle;rounded=0;orthogonalLoop=1;jettySize=auto;html=1;exitX=1;exitY=0.5;exitDx=0;exitDy=0;entryX=0;entryY=0.5;entryDx=0;entryDy=0;" parent="1" source="9G03GbZR6taJ4nQDHWax-5" target="Zzy0RxifWcgGenKRZsW1-1" edge="1">
          <mxGeometry relative="1" as="geometry"/>
        </mxCell>
        <mxCell id="9G03GbZR6taJ4nQDHWax-5" value="textSplit" style="rounded=1;whiteSpace=wrap;html=1;shadow=1;strokeColor=#B3B3B3;" parent="1" vertex="1">
          <mxGeometry x="310" y="80" width="80" height="40" as="geometry"/>
        </mxCell>
        <mxCell id="9G03GbZR6taJ4nQDHWax-15" style="edgeStyle=none;rounded=0;orthogonalLoop=1;jettySize=auto;html=1;exitX=1;exitY=0.5;exitDx=0;exitDy=0;entryX=0;entryY=0.5;entryDx=0;entryDy=0;" parent="1" source="9G03GbZR6taJ4nQDHWax-8" target="9G03GbZR6taJ4nQDHWax-14" edge="1">
          <mxGeometry relative="1" as="geometry"/>
        </mxCell>
        <mxCell id="9G03GbZR6taJ4nQDHWax-8" value="filter" style="rounded=1;whiteSpace=wrap;html=1;shadow=1;strokeColor=#B3B3B3;" parent="1" vertex="1">
          <mxGeometry x="310" y="190" width="80" height="40" as="geometry"/>
        </mxCell>
        <mxCell id="9G03GbZR6taJ4nQDHWax-18" style="edgeStyle=none;rounded=0;orthogonalLoop=1;jettySize=auto;html=1;exitX=1;exitY=0.5;exitDx=0;exitDy=0;entryX=0;entryY=0.5;entryDx=0;entryDy=0;" parent="1" source="9G03GbZR6taJ4nQDHWax-12" target="9G03GbZR6taJ4nQDHWax-14" edge="1">
          <mxGeometry relative="1" as="geometry"/>
        </mxCell>
        <mxCell id="9G03GbZR6taJ4nQDHWax-12" value="input" style="rounded=1;whiteSpace=wrap;html=1;shadow=1;strokeColor=#B3B3B3;" parent="1" vertex="1">
          <mxGeometry x="310" y="290" width="80" height="40" as="geometry"/>
        </mxCell>
        <mxCell id="9G03GbZR6taJ4nQDHWax-19" style="edgeStyle=none;rounded=0;orthogonalLoop=1;jettySize=auto;html=1;exitX=1;exitY=0.5;exitDx=0;exitDy=0;entryX=0;entryY=0.5;entryDx=0;entryDy=0;" parent="1" source="9G03GbZR6taJ4nQDHWax-14" target="9G03GbZR6taJ4nQDHWax-17" edge="1">
          <mxGeometry relative="1" as="geometry"/>
        </mxCell>
        <mxCell id="9G03GbZR6taJ4nQDHWax-14" value="union" style="rounded=1;whiteSpace=wrap;html=1;shadow=1;strokeColor=#B3B3B3;fillColor=#00FF00;" parent="1" vertex="1">
          <mxGeometry x="440" y="240" width="80" height="40" as="geometry"/>
        </mxCell>
        <mxCell id="Zzy0RxifWcgGenKRZsW1-12" style="rounded=0;orthogonalLoop=1;jettySize=auto;html=1;exitX=1;exitY=0.5;exitDx=0;exitDy=0;entryX=0;entryY=0.5;entryDx=0;entryDy=0;dashed=1;" parent="1" source="9G03GbZR6taJ4nQDHWax-17" target="Zzy0RxifWcgGenKRZsW1-11" edge="1">
          <mxGeometry relative="1" as="geometry"/>
        </mxCell>
        <mxCell id="9G03GbZR6taJ4nQDHWax-17" value="output" style="rounded=1;whiteSpace=wrap;html=1;shadow=1;strokeColor=#B3B3B3;fillColor=#CCFF99;" parent="1" vertex="1">
          <mxGeometry x="570" y="240" width="80" height="40" as="geometry"/>
        </mxCell>
        <mxCell id="Zzy0RxifWcgGenKRZsW1-14" style="edgeStyle=none;rounded=0;orthogonalLoop=1;jettySize=auto;html=1;exitX=1;exitY=0.5;exitDx=0;exitDy=0;entryX=0;entryY=0.5;entryDx=0;entryDy=0;dashed=1;" parent="1" source="Zzy0RxifWcgGenKRZsW1-1" target="Zzy0RxifWcgGenKRZsW1-11" edge="1">
          <mxGeometry relative="1" as="geometry"/>
        </mxCell>
        <mxCell id="Zzy0RxifWcgGenKRZsW1-1" value="output" style="rounded=1;whiteSpace=wrap;html=1;shadow=1;strokeColor=#B3B3B3;fillColor=#CCFF99;" parent="1" vertex="1">
          <mxGeometry x="440" y="80" width="80" height="40" as="geometry"/>
        </mxCell>
        <mxCell id="Zzy0RxifWcgGenKRZsW1-6" value="" style="rounded=0;whiteSpace=wrap;html=1;shadow=0;strokeColor=#FF66FF;fillColor=none;" parent="1" vertex="1">
          <mxGeometry x="40" y="110" width="240" height="80" as="geometry"/>
        </mxCell>
        <mxCell id="Zzy0RxifWcgGenKRZsW1-8" value="" style="rounded=0;whiteSpace=wrap;html=1;shadow=0;strokeColor=#FF66FF;fillColor=none;" parent="1" vertex="1">
          <mxGeometry x="293" y="180" width="117" height="60" as="geometry"/>
        </mxCell>
        <mxCell id="Zzy0RxifWcgGenKRZsW1-9" value="" style="rounded=0;whiteSpace=wrap;html=1;shadow=0;strokeColor=#FF66FF;fillColor=none;" parent="1" vertex="1">
          <mxGeometry x="293" y="280" width="117" height="60" as="geometry"/>
        </mxCell>
        <mxCell id="Zzy0RxifWcgGenKRZsW1-10" value="" style="rounded=0;whiteSpace=wrap;html=1;shadow=0;strokeColor=#FF66FF;fillColor=none;" parent="1" vertex="1">
          <mxGeometry x="293" y="60" width="247" height="80" as="geometry"/>
        </mxCell>
        <mxCell id="Zzy0RxifWcgGenKRZsW1-11" value="mock_node" style="rounded=1;whiteSpace=wrap;html=1;shadow=1;strokeColor=#B3B3B3;fillColor=#CCCCFF;" parent="1" vertex="1">
          <mxGeometry x="690" y="130" width="80" height="40" as="geometry"/>
        </mxCell>
        <mxCell id="Zzy0RxifWcgGenKRZsW1-15" value="mock_node" style="text;html=1;strokeColor=none;fillColor=none;align=center;verticalAlign=middle;whiteSpace=wrap;rounded=0;shadow=0;" parent="1" vertex="1">
          <mxGeometry x="710" y="100" width="40" height="20" as="geometry"/>
        </mxCell>
        <mxCell id="Zzy0RxifWcgGenKRZsW1-16" value="fork_node" style="text;html=1;strokeColor=none;fillColor=none;align=center;verticalAlign=middle;whiteSpace=wrap;rounded=0;shadow=0;" parent="1" vertex="1">
          <mxGeometry x="460" y="220" width="40" height="20" as="geometry"/>
        </mxCell>
        <mxCell id="Zzy0RxifWcgGenKRZsW1-17" value="fork_node" style="text;html=1;strokeColor=none;fillColor=none;align=center;verticalAlign=middle;whiteSpace=wrap;rounded=0;shadow=0;" parent="1" vertex="1">
          <mxGeometry x="200" y="110" width="40" height="20" as="geometry"/>
        </mxCell>
        <mxCell id="Zzy0RxifWcgGenKRZsW1-19" value="job" style="text;html=1;strokeColor=none;fillColor=none;align=center;verticalAlign=middle;whiteSpace=wrap;rounded=0;shadow=0;" parent="1" vertex="1">
          <mxGeometry x="130" y="80" width="40" height="20" as="geometry"/>
        </mxCell>
        <mxCell id="Zzy0RxifWcgGenKRZsW1-20" value="" style="rounded=0;whiteSpace=wrap;html=1;shadow=0;strokeColor=#FF66FF;fillColor=none;dashed=1;" parent="1" vertex="1">
          <mxGeometry x="650" y="100" width="167" height="80" as="geometry"/>
        </mxCell>
        <mxCell id="uUodR2btJpkQ9OOTqiJk-1" value="" style="rounded=0;whiteSpace=wrap;html=1;shadow=0;strokeColor=#FF66FF;fillColor=none;" parent="1" vertex="1">
          <mxGeometry x="605" y="460" width="40" height="30" as="geometry"/>
        </mxCell>
        <mxCell id="uUodR2btJpkQ9OOTqiJk-2" value="表示被划分节点组成的一个job" style="text;html=1;align=center;verticalAlign=middle;resizable=0;points=[];autosize=1;" parent="1" vertex="1">
          <mxGeometry x="643.5" y="465" width="180" height="20" as="geometry"/>
        </mxCell>
        <mxCell id="uUodR2btJpkQ9OOTqiJk-10" value="表示的是fork_node" style="text;html=1;align=center;verticalAlign=middle;resizable=0;points=[];autosize=1;" parent="1" vertex="1">
          <mxGeometry x="645" y="410" width="120" height="20" as="geometry"/>
        </mxCell>
        <mxCell id="uUodR2btJpkQ9OOTqiJk-12" value="" style="rounded=1;whiteSpace=wrap;html=1;shadow=1;strokeColor=#B3B3B3;fillColor=#CCCCFF;" parent="1" vertex="1">
          <mxGeometry x="410" y="405" width="42" height="30" as="geometry"/>
        </mxCell>
        <mxCell id="uUodR2btJpkQ9OOTqiJk-13" value="表示的是mock_node" style="text;html=1;align=center;verticalAlign=middle;resizable=0;points=[];autosize=1;" parent="1" vertex="1">
          <mxGeometry x="452" y="410" width="130" height="20" as="geometry"/>
        </mxCell>
        <mxCell id="uUodR2btJpkQ9OOTqiJk-14" value="" style="rounded=1;whiteSpace=wrap;html=1;shadow=1;strokeColor=#B3B3B3;fillColor=#66FF66;" parent="1" vertex="1">
          <mxGeometry x="603" y="405" width="42" height="30" as="geometry"/>
        </mxCell>
        <mxCell id="HwFJusYSWP0cop9RlYw7-3" value="" style="rounded=0;whiteSpace=wrap;html=1;shadow=0;strokeColor=#FF66FF;fillColor=none;" vertex="1" parent="1">
          <mxGeometry x="420" y="220" width="247" height="80" as="geometry"/>
        </mxCell>
        <mxCell id="HwFJusYSWP0cop9RlYw7-8" value="" style="rounded=1;whiteSpace=wrap;html=1;shadow=1;strokeColor=#B3B3B3;fillColor=#CCFF99;" vertex="1" parent="1">
          <mxGeometry x="410" y="460" width="42" height="30" as="geometry"/>
        </mxCell>
        <mxCell id="HwFJusYSWP0cop9RlYw7-9" value="表示的是leaf_node" style="text;html=1;align=center;verticalAlign=middle;resizable=0;points=[];autosize=1;" vertex="1" parent="1">
          <mxGeometry x="452" y="465" width="120" height="20" as="geometry"/>
        </mxCell>
      </root>
    </mxGraphModel>
  </diagram>
</mxfile>
